<svg xmlns="http://www.w3.org/2000/svg" xmlns:xlink="http://www.w3.org/1999/xlink" width="104" zoomAndPan="magnify" viewBox="0 0 78 30.000001" height="40" preserveAspectRatio="xMidYMid meet" version="1.0"><defs><g/><clipPath id="13e5be9493"><path d="M 1.257812 0 L 76.742188 0 L 76.742188 29.03125 L 1.257812 29.03125 Z M 1.257812 0 " clip-rule="nonzero"/></clipPath></defs><g clip-path="url(#13e5be9493)"><path fill="#ffffff" d="M 1.257812 0 L 76.742188 0 L 76.742188 29.03125 L 1.257812 29.03125 Z M 1.257812 0 " fill-opacity="1" fill-rule="nonzero"/><path fill="#ffffff" d="M 1.257812 0 L 76.742188 0 L 76.742188 29.03125 L 1.257812 29.03125 Z M 1.257812 0 " fill-opacity="1" fill-rule="nonzero"/></g><g fill="#000000" fill-opacity="1"><g transform="translate(1.258063, 23.081037)"><g><path d="M 1.9375 0 L 1.9375 -15.4375 L 5.21875 -15.4375 L 5.21875 -2.703125 L 11.484375 -2.703125 L 11.484375 0 Z M 1.9375 0 "/></g></g></g><g fill="#000000" fill-opacity="1"><g transform="translate(13.471944, 23.081037)"><g><path d="M 15.953125 -7.734375 C 15.953125 -5.179688 15.316406 -3.21875 14.046875 -1.84375 C 12.785156 -0.46875 10.972656 0.21875 8.609375 0.21875 C 6.242188 0.21875 4.425781 -0.46875 3.15625 -1.84375 C 1.882812 -3.21875 1.25 -5.191406 1.25 -7.765625 C 1.25 -10.328125 1.882812 -12.285156 3.15625 -13.640625 C 4.425781 -15.003906 6.25 -15.6875 8.625 -15.6875 C 11 -15.6875 12.8125 -15 14.0625 -13.625 C 15.320312 -12.257812 15.953125 -10.296875 15.953125 -7.734375 Z M 4.6875 -7.734375 C 4.6875 -6.015625 5.015625 -4.71875 5.671875 -3.84375 C 6.328125 -2.96875 7.304688 -2.53125 8.609375 -2.53125 C 11.210938 -2.53125 12.515625 -4.265625 12.515625 -7.734375 C 12.515625 -11.210938 11.21875 -12.953125 8.625 -12.953125 C 7.320312 -12.953125 6.335938 -12.515625 5.671875 -11.640625 C 5.015625 -10.765625 4.6875 -9.460938 4.6875 -7.734375 Z M 4.6875 -7.734375 "/></g></g></g><g fill="#000000" fill-opacity="1"><g transform="translate(30.679009, 23.081037)"><g><path d="M 5.21875 -8.578125 L 6.265625 -8.578125 C 7.304688 -8.578125 8.070312 -8.75 8.5625 -9.09375 C 9.050781 -9.445312 9.296875 -9.992188 9.296875 -10.734375 C 9.296875 -11.460938 9.046875 -11.976562 8.546875 -12.28125 C 8.046875 -12.59375 7.265625 -12.75 6.203125 -12.75 L 5.21875 -12.75 Z M 5.21875 -5.921875 L 5.21875 0 L 1.9375 0 L 1.9375 -15.4375 L 6.4375 -15.4375 C 8.539062 -15.4375 10.09375 -15.050781 11.09375 -14.28125 C 12.101562 -13.519531 12.609375 -12.363281 12.609375 -10.8125 C 12.609375 -9.90625 12.359375 -9.097656 11.859375 -8.390625 C 11.359375 -7.679688 10.648438 -7.125 9.734375 -6.71875 C 12.054688 -3.25 13.570312 -1.007812 14.28125 0 L 10.640625 0 L 6.953125 -5.921875 Z M 5.21875 -5.921875 "/></g></g></g><g fill="#000000" fill-opacity="1"><g transform="translate(44.951372, 23.081037)"><g><path d="M 5.21875 -8.578125 L 6.265625 -8.578125 C 7.304688 -8.578125 8.070312 -8.75 8.5625 -9.09375 C 9.050781 -9.445312 9.296875 -9.992188 9.296875 -10.734375 C 9.296875 -11.460938 9.046875 -11.976562 8.546875 -12.28125 C 8.046875 -12.59375 7.265625 -12.75 6.203125 -12.75 L 5.21875 -12.75 Z M 5.21875 -5.921875 L 5.21875 0 L 1.9375 0 L 1.9375 -15.4375 L 6.4375 -15.4375 C 8.539062 -15.4375 10.09375 -15.050781 11.09375 -14.28125 C 12.101562 -13.519531 12.609375 -12.363281 12.609375 -10.8125 C 12.609375 -9.90625 12.359375 -9.097656 11.859375 -8.390625 C 11.359375 -7.679688 10.648438 -7.125 9.734375 -6.71875 C 12.054688 -3.25 13.570312 -1.007812 14.28125 0 L 10.640625 0 L 6.953125 -5.921875 Z M 5.21875 -5.921875 "/></g></g></g><g fill="#000000" fill-opacity="1"><g transform="translate(59.223735, 23.081037)"><g><path d="M 11.390625 0 L 10.28125 -3.671875 L 4.640625 -3.671875 L 3.53125 0 L 0 0 L 5.453125 -15.5 L 9.453125 -15.5 L 14.921875 0 Z M 9.5 -6.421875 C 8.457031 -9.753906 7.867188 -11.632812 7.734375 -12.0625 C 7.609375 -12.5 7.519531 -12.847656 7.46875 -13.109375 C 7.226562 -12.203125 6.5625 -9.972656 5.46875 -6.421875 Z M 5.734375 -17.78125 C 5.515625 -17.78125 5.300781 -17.6875 5.09375 -17.5 C 4.894531 -17.3125 4.753906 -17.023438 4.671875 -16.640625 L 3.09375 -16.640625 C 3.164062 -17.660156 3.453125 -18.457031 3.953125 -19.03125 C 4.460938 -19.613281 5.132812 -19.90625 5.96875 -19.90625 C 6.25 -19.90625 6.53125 -19.847656 6.8125 -19.734375 C 7.09375 -19.617188 7.367188 -19.488281 7.640625 -19.34375 C 7.910156 -19.207031 8.175781 -19.082031 8.4375 -18.96875 C 8.695312 -18.863281 8.953125 -18.8125 9.203125 -18.8125 C 9.421875 -18.8125 9.628906 -18.898438 9.828125 -19.078125 C 10.035156 -19.265625 10.179688 -19.546875 10.265625 -19.921875 L 11.84375 -19.921875 C 11.769531 -18.898438 11.476562 -18.101562 10.96875 -17.53125 C 10.457031 -16.957031 9.789062 -16.671875 8.96875 -16.671875 C 8.6875 -16.671875 8.40625 -16.726562 8.125 -16.84375 C 7.84375 -16.957031 7.566406 -17.082031 7.296875 -17.21875 C 7.023438 -17.351562 6.757812 -17.476562 6.5 -17.59375 C 6.238281 -17.71875 5.984375 -17.78125 5.734375 -17.78125 Z M 5.734375 -17.78125 "/></g></g></g></svg>